<?xml version="1.0" encoding="UTF-8"?>
<svg id="Layer_2" data-name="Layer 2" xmlns="http://www.w3.org/2000/svg" viewBox="0 0 300.73 78.99">
  <g id="Layer_1-2" data-name="Layer 1">
    <g>
      <g>
        <path d="M82.01,65.03V13.96s6.13,0,6.13,0v23.78s19.99-23.78,19.99-23.78h7.81s-21.52,25.39-21.52,25.39v.29s21.81,25.39,21.81,25.39h-7.95s-20.13-23.42-20.13-23.42v23.42s-6.13,0-6.13,0Z"/>
        <path d="M131.09,65.9c-4.38,0-7.69-1.31-9.92-3.94-2.24-2.63-3.36-6.42-3.36-11.38v-21.74s6.13,0,6.13,0v21.01c0,3.21.72,5.73,2.15,7.55,1.43,1.82,3.61,2.74,6.53,2.74s5.37-.98,7.37-2.95c1.99-1.97,2.99-4.8,2.99-8.5v-19.84s6.13,0,6.13,0v36.18s-5.11,0-5.11,0l-.66-5.47h-.36c-.97,1.75-2.51,3.25-4.6,4.49-2.09,1.24-4.52,1.86-7.3,1.86Z"/>
        <path d="M157.54,65.03V13.96s6.13,0,6.13,0v20.35c.97-1.85,2.58-3.37,4.81-4.56,2.24-1.19,4.69-1.79,7.37-1.79,4.43,0,7.79,1.34,10.1,4.01,2.31,2.68,3.46,6.42,3.46,11.23v21.81s-6.13,0-6.13,0v-21.01c0-3.26-.79-5.79-2.37-7.59-1.58-1.8-3.78-2.7-6.6-2.7-1.95,0-3.72.44-5.33,1.31-1.61.88-2.89,2.16-3.87,3.87-.97,1.7-1.46,3.79-1.46,6.27v19.84s-6.13,0-6.13,0Z"/>
        <path d="M197.69,65.03V28.85s5.11,0,5.11,0l.66,5.47h.36c.97-1.75,2.5-3.25,4.6-4.49,2.09-1.24,4.5-1.86,7.22-1.86,4.43,0,7.74,1.31,9.96,3.94,2.21,2.63,3.32,6.42,3.32,11.38v21.74s-6.13,0-6.13,0v-21.01c0-3.21-.7-5.73-2.11-7.55-1.41-1.82-3.6-2.74-6.57-2.74s-5.3.98-7.3,2.95c-1.99,1.97-2.99,4.8-2.99,8.5v19.84s-6.13,0-6.13,0Z"/>
        <path d="M235.88,65.03v-5.25s11.53,0,11.53,0v-23.86c0-1.22-.61-1.82-1.82-1.82h-8.46s0-5.25,0-5.25h9.92c4.33,0,6.49,2.17,6.49,6.49v24.44s11.53,0,11.53,0v5.25s-29.18,0-29.18,0ZM250.03,22.43c-1.46,0-2.68-.49-3.65-1.46-.97-.97-1.46-2.14-1.46-3.5s.49-2.59,1.46-3.54c.97-.95,2.19-1.42,3.65-1.42s2.61.47,3.61,1.42c1,.95,1.5,2.13,1.5,3.54s-.5,2.53-1.5,3.5c-1,.97-2.2,1.46-3.61,1.46Z"/>
        <path d="M284.9,65.91c-3.26,0-6.16-.75-8.72-2.26s-4.58-3.68-6.09-6.53c-1.51-2.85-2.26-6.24-2.26-10.18,0-3.94.75-7.33,2.26-10.18,1.51-2.85,3.56-5.02,6.16-6.53,2.6-1.51,5.48-2.26,8.65-2.26,4.47,0,8.05,1.12,10.72,3.36,2.67,2.24,4.38,5.23,5.11,8.97h-6.27c-.58-1.99-1.7-3.59-3.36-4.78-1.65-1.19-3.75-1.79-6.27-1.79-1.85,0-3.6.49-5.25,1.46-1.65.97-2.99,2.43-4.01,4.38-1.02,1.95-1.53,4.4-1.53,7.37,0,2.97.51,5.43,1.53,7.4,1.02,1.97,2.36,3.44,4.01,4.41,1.65.97,3.4,1.46,5.25,1.46,2.67,0,4.8-.61,6.38-1.82,1.58-1.22,2.66-2.82,3.25-4.81h6.27c-.92,3.84-2.74,6.86-5.44,9.05-2.7,2.19-6.16,3.28-10.4,3.28Z"/>
      </g>
      <g>
        <path d="M24.35,12.55L12.36.56c-.74-.74-1.94-.74-2.69,0l-3.59,3.59C2.19,8.04,0,13.32,0,18.83v20.57s0,.2,0,.2v20.57c0,5.51,2.19,10.79,6.08,14.68l3.59,3.59c.74.74,1.94.74,2.69,0l12-12c.74-.74.74-1.94,0-2.69L4.13,43.52c-2.23-2.23-2.23-5.83,0-8.06L24.35,15.24c.74-.74.74-1.94,0-2.69Z"/>
        <path d="M54.94,65.09h-13.8c-.5,0-.99-.2-1.34-.56l-23.7-23.7c-.74-.74-.74-1.94,0-2.69l23.7-23.7c.36-.36.84-.56,1.34-.56h13.85c1.32,0,1.98,1.59,1.05,2.53l-21.75,21.75c-.74.74-.74,1.94,0,2.69l21.71,21.71c.93.93.27,2.53-1.05,2.53Z"/>
      </g>
    </g>
  </g>
</svg>