<svg xmlns="http://www.w3.org/2000/svg" xmlns:xlink="http://www.w3.org/1999/xlink" id="Layer_1" x="0px" y="0px" viewBox="0 0 200 12.9" style="enable-background:new 0 0 200 12.9;" xml:space="preserve"><style type="text/css">	.st0{fill:#2C72DB;}</style><path class="st0" d="M8.9,2.3v10.6h-3V2.3H0V0h14.8v2.3H8.9z M29.7,2.2H23v3.6h6.7c0.5,0,0.9-0.1,1.1-0.2c0.2-0.2,0.3-0.4,0.3-0.8 V3.2c0-0.4-0.1-0.6-0.3-0.8C30.6,2.3,30.3,2.2,29.7,2.2z M20,12.9V0h11c1,0,1.8,0.2,2.2,0.6C33.7,1,34,1.6,34,2.5v3 c0,0.9-0.2,1.5-0.7,1.9S32.1,8,31.1,8h-1.7l5.9,4.9H31L25.8,8H23v4.9H20z M44,7.7h5.6l-2.8-5.2L44,7.7z M38.2,12.9L45.5,0h2.9 l7.4,12.9h-3.4l-1.5-2.8h-8.2l-1.5,2.8H38.2z M61.4,12.9V0h2l9.1,7.6c0.3,0.3,0.6,0.5,0.8,0.7C73.6,8.5,73.8,8.8,74,9 c0-0.7-0.1-1.2-0.1-1.5V0h2.7v12.9h-2.1l-9.5-8c-0.2-0.2-0.4-0.4-0.6-0.5C64.3,4.2,64.2,4,64,3.9c0,0.4,0.1,0.8,0.1,1.1v7.9 C64.1,12.9,61.4,12.9,61.4,12.9z M95.8,2.3h-8.4V5h8c1.3,0,2.1,0.2,2.6,0.6C98.4,6,98.7,6.8,98.7,8v1.8c0,1.2-0.2,2-0.7,2.4 c-0.4,0.4-1.3,0.6-2.6,0.6h-8c-1.3,0-2.1-0.2-2.6-0.6c-0.4-0.4-0.7-1.2-0.7-2.4V9.5L86.7,9v1.5H96v-3h-8c-1.3,0-2.1-0.2-2.5-0.6 s-0.7-1.2-0.7-2.4V3c0-1.2,0.2-2,0.7-2.4C85.9,0.2,86.7,0,88,0h7.3c1.2,0,2,0.2,2.5,0.6s0.7,1.2,0.7,2.2v0.3l-2.6,0.6L95.8,2.3 L95.8,2.3z M116.1,2.2h-6.7v3.4h6.7c0.5,0,0.9-0.1,1.1-0.2s0.3-0.4,0.3-0.8V3.2c0-0.4-0.1-0.6-0.3-0.8C117,2.3,116.6,2.2,116.1,2.2z  M106.4,12.9V0h11c1,0,1.8,0.2,2.2,0.6c0.5,0.4,0.7,1,0.7,1.9v2.9c0,0.9-0.2,1.5-0.7,1.9s-1.2,0.6-2.2,0.6h-8.1v5H106.4z M129,0 v10.5h8.5V0h3v9.8c0,1.2-0.2,2-0.7,2.4c-0.4,0.4-1.3,0.6-2.5,0.6h-8.1c-1.2,0-2.1-0.2-2.5-0.6c-0.4-0.4-0.7-1.2-0.7-2.4V0H129z  M154.7,2.3v10.6h-3V2.3h-5.9V0h14.8v2.3H154.7L154.7,2.3z M165.8,12.9V0H179v2.2h-10.2v2.9h6v2.2h-6v3.2h10.3v2.4 C179.1,12.9,165.8,12.9,165.8,12.9z M197,2.3h-8.1v8.2h8.1V7.7l3,0.6v1.5c0,1.2-0.2,2-0.7,2.4c-0.4,0.4-1.3,0.6-2.5,0.6h-7.7 c-1.3,0-2.1-0.2-2.5-0.6c-0.4-0.4-0.7-1.2-0.7-2.4V3c0-1.2,0.2-2,0.7-2.4c0.4-0.4,1.3-0.6,2.5-0.6h7.7c1.2,0,2.1,0.2,2.5,0.6 S200,1.8,200,3v1.2l-3,0.5V2.3z"></path></svg>